<?xml version="1.0" encoding="utf-8"?>
<!-- Generator: Adobe Illustrator 27.5.0, SVG Export Plug-In . SVG Version: 6.00 Build 0)  -->
<svg version="1.1" id="Layer_1" xmlns="http://www.w3.org/2000/svg" xmlns:xlink="http://www.w3.org/1999/xlink" x="0px" y="0px"
	 viewBox="0 0 360 288" style="enable-background:new 0 0 360 288;" xml:space="preserve">
<g>
	<rect style="fill:#FFFFFF;" width="360" height="288"/>
	<polygon style="fill:#00CC93;" points="57.934,26.352 32.315,26.352 49.783,47.803 32.315,69.255 57.934,69.255 75.402,47.803 	"/>
	<polygon style="fill:#00CC93;" points="57.934,161.281 45.084,161.281 62.551,182.732 45.084,204.184 57.934,204.184 
		75.402,182.732 	"/>
	<g>
		<polygon style="fill:#000E40;" points="104.139,161.281 91.288,161.281 108.756,182.732 91.288,204.184 104.139,204.184 
			121.606,182.732 		"/>
		<polygon style="fill:#000E40;" points="126.816,161.281 113.965,161.281 131.433,182.732 113.965,204.184 126.816,204.184 
			144.283,182.732 		"/>
	</g>
	<g>
		<polygon style="fill:#00CC93;" points="169.052,161.281 162.249,161.281 179.716,182.732 162.249,204.184 169.052,204.184 
			186.52,182.732 		"/>
		<polygon style="fill:#00CC93;" points="182.092,161.281 175.288,161.281 192.756,182.732 175.288,204.184 182.092,204.184 
			199.559,182.732 		"/>
		<polygon style="fill:#00CC93;" points="195.131,161.281 188.328,161.281 205.795,182.732 188.328,204.184 195.131,204.184 
			212.598,182.732 		"/>
		<polygon style="fill:#00CC93;" points="208.17,161.281 201.367,161.281 218.835,182.732 201.367,204.184 208.17,204.184 
			225.638,182.732 		"/>
	</g>
	<polygon style="fill:#00CC93;" points="306.815,162.208 294.52,162.208 294.52,168.692 305.953,182.732 294.52,196.773 
		294.52,203.257 306.815,203.257 323.528,182.732 	"/>
	<g>
		<polygon style="fill:#000E40;" points="245.172,168.893 236.882,168.893 248.151,182.732 236.882,196.571 245.172,196.571 
			256.441,182.732 		"/>
		<polygon style="fill:#000E40;" points="259.666,161.281 246.816,161.281 264.284,182.732 246.816,204.184 259.666,204.184 
			277.134,182.732 		"/>
	</g>
	<polygon style="fill:#000E40;" points="40.819,96.084 64.458,117.535 40.819,138.987 75.402,117.535 	"/>
	<polygon style="fill:#00CC93;" points="87.857,96.084 100.913,117.535 87.857,138.987 122.44,117.535 	"/>
	<polygon style="fill:#00CC93;" points="226.755,232.802 241.102,249.913 226.755,267.025 264.756,249.913 	"/>
	<polygon style="fill:#00CC93;" points="291.909,231.488 302.313,249.299 291.909,267.11 319.465,249.299 	"/>
	<g>
		<path style="fill:#000E40;" d="M182.305,138.055c-0.59,0-1.173-0.259-1.568-0.757c-0.687-0.866-0.542-2.123,0.324-2.81
			l21.37-16.953l-21.37-16.953c-0.865-0.687-1.01-1.944-0.324-2.81c0.687-0.866,1.944-1.01,2.81-0.324l23.345,18.52
			c0.478,0.379,0.757,0.957,0.757,1.567c0,0.61-0.279,1.188-0.757,1.567l-23.345,18.52
			C183.179,137.914,182.74,138.055,182.305,138.055z"/>
	</g>
	<g>
		<g>
			<path style="fill:#00CC93;" d="M234.084,138.055c-0.59,0-1.173-0.259-1.568-0.757c-0.687-0.866-0.542-2.123,0.324-2.81
				l21.37-16.953l-21.37-16.953c-0.865-0.687-1.01-1.944-0.324-2.81c0.687-0.866,1.944-1.01,2.81-0.324l23.345,18.52
				c0.478,0.379,0.757,0.957,0.757,1.567c0,0.61-0.279,1.188-0.757,1.567l-23.345,18.52
				C234.958,137.914,234.52,138.055,234.084,138.055z"/>
		</g>
		<g>
			<path style="fill:#00CC93;" d="M221.234,138.055c-0.59,0-1.173-0.259-1.568-0.757c-0.687-0.866-0.542-2.123,0.324-2.81
				l21.37-16.953l-21.37-16.953c-0.865-0.687-1.01-1.944-0.324-2.81c0.687-0.866,1.945-1.01,2.81-0.324l23.345,18.52
				c0.478,0.379,0.757,0.957,0.757,1.567c0,0.61-0.279,1.188-0.757,1.567l-23.345,18.52
				C222.108,137.914,221.67,138.055,221.234,138.055z"/>
		</g>
	</g>
	<g>
		<g>
			<path style="fill:#000E40;" d="M292.289,138.055c-0.59,0-1.173-0.259-1.568-0.757c-0.686-0.866-0.542-2.123,0.324-2.81
				l21.37-16.953l-21.37-16.953c-0.865-0.687-1.01-1.944-0.324-2.81c0.687-0.866,1.944-1.01,2.81-0.324l23.345,18.52
				c0.478,0.379,0.757,0.957,0.757,1.567c0,0.61-0.279,1.188-0.757,1.567l-23.345,18.52
				C293.163,137.914,292.725,138.055,292.289,138.055z"/>
		</g>
		<g>
			<path style="fill:#000E40;" d="M279.439,138.055c-0.59,0-1.173-0.259-1.568-0.757c-0.687-0.866-0.542-2.123,0.324-2.81
				l21.37-16.953l-21.37-16.953c-0.865-0.687-1.01-1.944-0.324-2.81c0.687-0.866,1.945-1.01,2.81-0.324l23.345,18.52
				c0.478,0.379,0.757,0.957,0.757,1.567c0,0.61-0.279,1.188-0.757,1.567l-23.345,18.52
				C280.313,137.914,279.874,138.055,279.439,138.055z"/>
		</g>
		<g>
			<path style="fill:#000E40;" d="M266.588,138.055c-0.59,0-1.173-0.259-1.568-0.757c-0.686-0.866-0.542-2.123,0.324-2.81
				l21.37-16.953l-21.37-16.953c-0.865-0.687-1.01-1.944-0.324-2.81c0.687-0.866,1.944-1.01,2.81-0.324l23.345,18.52
				c0.478,0.379,0.757,0.957,0.757,1.567c0,0.61-0.279,1.188-0.757,1.567l-23.345,18.52
				C267.462,137.914,267.024,138.055,266.588,138.055z"/>
		</g>
	</g>
	<polygon style="fill:#00CC93;" points="135.101,96.084 142.488,117.535 135.101,138.987 169.684,117.535 	"/>
	<g>
		<polygon style="fill:#000E40;" points="131.446,26.352 105.827,26.352 123.294,47.803 105.827,69.255 131.446,69.255 
			148.913,47.803 		"/>
		<polygon style="fill:#000E40;" points="98.895,26.352 90.533,26.352 108,47.803 90.533,69.255 98.895,69.255 116.362,47.803 		"/>
	</g>
	<g>
		<polygon style="fill:#00CC93;" points="213.273,26.352 187.654,26.352 205.121,47.803 187.654,69.255 213.273,69.255 
			230.74,47.803 		"/>
		<polygon style="fill:#00CC93;" points="180.721,26.352 172.359,26.352 189.827,47.803 172.359,69.255 180.721,69.255 
			198.189,47.803 		"/>
		<polygon style="fill:#00CC93;" points="165.603,26.352 157.241,26.352 174.709,47.803 157.241,69.255 165.603,69.255 
			183.071,47.803 		"/>
	</g>
	<g>
		<polygon style="fill:#000E40;" points="309.084,26.352 283.465,26.352 300.932,47.803 283.465,69.255 309.084,69.255 
			326.551,47.803 		"/>
		<polygon style="fill:#000E40;" points="276.533,26.352 268.17,26.352 285.638,47.803 268.17,69.255 276.533,69.255 294,47.803 		
			"/>
		<polygon style="fill:#000E40;" points="261.414,26.352 253.052,26.352 270.52,47.803 253.052,69.255 261.414,69.255 
			278.882,47.803 		"/>
		<polygon style="fill:#000E40;" points="246.391,26.352 238.029,26.352 255.496,47.803 238.029,69.255 246.391,69.255 
			263.858,47.803 		"/>
	</g>
	<g>
		<polygon style="fill:#000E40;" points="71.162,227.706 58.312,227.706 75.78,249.158 58.312,270.609 71.162,270.609 
			88.63,249.158 		"/>
		<rect x="32.882" y="243.866" style="fill:#000E40;" width="45.732" height="10.583"/>
	</g>
	<rect x="276.095" y="244.444" style="fill:#000E40;" width="29.236" height="9.711"/>
	<g>
		<polygon style="fill:#00CC93;" points="131.446,227.706 118.595,227.706 136.063,249.158 118.595,270.609 131.446,270.609 
			148.913,249.158 		"/>
		<rect x="103.748" y="239.992" style="fill:#00CC93;" width="33.638" height="18.331"/>
	</g>
	<g>
		<polygon style="fill:#000E40;" points="201.178,227.706 180.473,227.706 197.94,249.158 180.473,270.609 201.178,270.609 
			218.646,249.158 		"/>
		<rect x="162.709" y="237.418" style="fill:#000E40;" width="43.087" height="23.48"/>
	</g>
</g>
</svg>
